HIERARCHY
ROOT Hips
{
	OFFSET 0.00000 0.00000 0.00000
	CHANNELS 6 Xposition Yposition Zposition Zrotation Yrotation Xrotation 
	JOINT LHipJoint
	{
		OFFSET 0 0 0
		CHANNELS 3 Zrotation Yrotation Xrotation
		JOINT LeftUpLeg
		{
			OFFSET 1.75344 -1.53157 0.77399
			CHANNELS 3 Zrotation Yrotation Xrotation
			JOINT LeftLeg
			{
				OFFSET 2.25415 -6.19323 0.00000
				CHANNELS 3 Zrotation Yrotation Xrotation
				JOINT LeftFoot
				{
					OFFSET 2.30342 -6.32861 0.00000
					CHANNELS 3 Zrotation Yrotation Xrotation
					JOINT LeftToeBase
					{
						OFFSET 0.10958 -0.30108 1.49206
						CHANNELS 3 Zrotation Yrotation Xrotation
						End Site
						{
							OFFSET 0.00000 -0.00000 0.77783
						}
					}
				}
			}
		}
	}
	JOINT RHipJoint
	{
		OFFSET 0 0 0
		CHANNELS 3 Zrotation Yrotation Xrotation
		JOINT RightUpLeg
		{
			OFFSET -1.81912 -1.53156 0.77399
			CHANNELS 3 Zrotation Yrotation Xrotation
			JOINT RightLeg
			{
				OFFSET -2.22882 -6.12365 0.00000
				CHANNELS 3 Zrotation Yrotation Xrotation
				JOINT RightFoot
				{
					OFFSET -2.21943 -6.09785 0.00000
					CHANNELS 3 Zrotation Yrotation Xrotation
					JOINT RightToeBase
					{
						OFFSET -0.18931 -0.52012 1.59379
						CHANNELS 3 Zrotation Yrotation Xrotation
						End Site
						{
							OFFSET -0.00000 -0.00000 0.84686
						}
					}
				}
			}
		}
	}
	JOINT LowerBack
	{
		OFFSET 0 0 0
		CHANNELS 3 Zrotation Yrotation Xrotation
		JOINT Spine
		{
			OFFSET -0.00200 1.66634 -0.14248
			CHANNELS 3 Zrotation Yrotation Xrotation
			JOINT Spine1
			{
				OFFSET -0.00875 1.64542 0.09514
				CHANNELS 3 Zrotation Yrotation Xrotation
				JOINT Neck
				{
					OFFSET 0 0 0
					CHANNELS 3 Zrotation Yrotation Xrotation
					JOINT Neck1
					{
						OFFSET 0.02257 1.59605 0.00839
						CHANNELS 3 Zrotation Yrotation Xrotation
						JOINT Head
						{
							OFFSET -0.10214 1.57530 -0.23335
							CHANNELS 3 Zrotation Yrotation Xrotation
							End Site
							{
								OFFSET -0.03588 1.60717 -0.08062
							}
						}
					}
				}
				JOINT LeftShoulder
				{
					OFFSET 0 0 0
					CHANNELS 3 Zrotation Yrotation Xrotation
					JOINT LeftArm
					{
						OFFSET 2.54983 1.10186 0.40078
						CHANNELS 3 Zrotation Yrotation Xrotation
						JOINT LeftForeArm
						{
							OFFSET 4.28840 -0.00000 0.00000
							CHANNELS 3 Zrotation Yrotation Xrotation
							JOINT LeftHand
							{
								OFFSET 3.06552 -0.00000 -0.00000
								CHANNELS 3 Zrotation Yrotation Xrotation
								JOINT LeftFingerBase
								{
									OFFSET 0 0 0
									CHANNELS 3 Zrotation Yrotation Xrotation
									JOINT LeftHandIndex1
									{
										OFFSET 0.75304 -0.00000 0.00000
										CHANNELS 3 Zrotation Yrotation Xrotation
										End Site
										{
											OFFSET 0.60712 -0.00000 0.00000
										}
									}
								}
								JOINT LThumb
								{
									OFFSET 0 0 0
									CHANNELS 3 Zrotation Yrotation Xrotation
									End Site
									{
										OFFSET 0.61639 -0.00000 0.61639
									}
								}
							}
						}
					}
				}
				JOINT RightShoulder
				{
					OFFSET 0 0 0
					CHANNELS 3 Zrotation Yrotation Xrotation
					JOINT RightArm
					{
						OFFSET -2.60909 1.35448 0.21802
						CHANNELS 3 Zrotation Yrotation Xrotation
						JOINT RightForeArm
						{
							OFFSET -4.52172 -0.00000 -0.00000
							CHANNELS 3 Zrotation Yrotation Xrotation
							JOINT RightHand
							{
								OFFSET -2.89140 -0.00000 0.00000
								CHANNELS 3 Zrotation Yrotation Xrotation
								JOINT RightFingerBase
								{
									OFFSET 0 0 0
									CHANNELS 3 Zrotation Yrotation Xrotation
									JOINT RightHandIndex1
									{
										OFFSET -0.68054 -0.00000 0.00000
										CHANNELS 3 Zrotation Yrotation Xrotation
										End Site
										{
											OFFSET -0.54867 -0.00000 0.00000
										}
									}
								}
								JOINT RThumb
								{
									OFFSET 0 0 0
									CHANNELS 3 Zrotation Yrotation Xrotation
									End Site
									{
										OFFSET -0.55705 -0.00000 0.55705
									}
								}
							}
						}
					}
				}
			}
		}
	}
}
MOTION
Frames: 9
Frame Time: .0083333
8.7013 15.0449 42.057 0 0 0 0 0 0 -21 0 0 0 0 0 0 0 0 0 0 0 0 0 0 21 0 0 0 0 0 0 0 0 0 0 0 0 0 0 0 0 0 0 0 0 0 0 -16 0 0 21 0 0 11 0 0 0 -8 0 0 0 0 0 0 0 0 0 0 0 0 0 0 0 0 0 0 0 0 8 0 0 0 0 0 0 0 0 0 0 0 0 0 0 0 0 0
8.7013 15.0449 42.0570 -178.2880 -2.6579 175.2210 0.0000 0.0000 0.0000 -26.3610 -25.3784 4.6051 3.0035 10.7007 31.2769 1.9498 10.3982 -31.8262 3.5561 -11.5450 -34.1409 0.0000 0.0000 0.0000 29.6831 19.5336 7.5037 -2.1052 -9.0818 26.0516 0.3507 -24.6473 -32.5371 -0.0478 1.4108 -3.8798 3.4203 0.1922 12.0412 -0.7751 0.7033 -4.7672 -2.9318 0.0101 -11.9530 -7.9521 -2.6680 -10.0573 9.1947 -3.7504 10.9874 3.9009 -1.6380 5.2727 -0.0000 -0.0000 0.0000 -80.9389 17.8202 45.3256 15.7406 -25.1677 -3.5349 -0.0000 -0.0000 21.6779 3.2470 -20.7434 -1.1511 -7.1250 0.0000 -0.0000 -16.0632 9.8255 13.6486 -0.0000 -0.0000 0.0000 82.1837 -15.8323 52.1594 -18.8132 29.1860 -4.9394 0.0000 0.0000 37.3659 50.0429 -20.4534 -22.6404 7.1250 -0.0000 -0.0000 57.7112 -39.6138 13.8529
8.6929 15.0463 42.0246 -180.2130 -2.4502 175.1600 0.0000 0.0000 0.0000 -28.9802 -25.4216 6.1094 2.6923 10.1794 29.5596 1.7847 11.1194 -31.3326 2.8612 -10.4669 -30.5024 0.0000 0.0000 0.0000 27.4277 19.3739 6.9509 -2.3525 -9.5646 27.5779 -0.0688 -23.6630 -33.7265 -0.0358 1.2205 -3.3558 0.4928 0.2390 10.7899 -0.6237 0.2989 -4.0655 -1.0054 0.0707 -10.4456 -7.8518 -2.3777 -10.4852 8.4276 -3.1588 10.4969 3.6826 -1.3642 5.1280 -0.0000 0.0000 0.0000 -82.5219 16.6681 43.6949 16.4286 -26.0983 -3.8325 -0.0000 -0.0000 16.3910 -5.7279 -20.4721 2.0092 -7.1250 0.0000 -0.0000 -21.5479 10.4381 18.6978 -0.0000 0.0000 0.0000 81.0571 -14.6603 53.0527 -18.6896 29.0312 -4.8793 0.0000 0.0000 36.9511 49.4202 -20.8509 -22.5666 7.1250 -0.0000 -0.0000 58.1413 -40.2024 12.3866
8.6888 15.0571 42.0113 -180.9580 -2.2060 175.5850 0.0000 0.0000 0.0000 -29.8552 -25.7470 6.2783 2.5720 9.9677 28.8723 1.6900 11.7420 -31.2127 2.8150 -10.3895 -30.2473 0.0000 0.0000 0.0000 26.3262 19.5035 6.3527 -2.3963 -9.6469 27.8408 -0.2644 -22.9092 -33.8976 -0.0191 0.8924 -2.4529 0.3331 0.4832 10.3238 -1.1582 0.5315 -4.2340 -1.5307 0.1638 -10.3479 -7.7615 -2.4874 -10.1006 8.5953 -3.3638 10.2620 3.7049 -1.4634 5.0094 -0.0000 0.0000 0.0000 -81.9716 16.6492 44.2216 16.4423 -26.1167 -3.8386 -0.0000 -0.0000 16.2043 -4.3207 -24.6302 1.8035 -7.1250 0.0000 -0.0000 -20.4129 6.5022 19.2673 -0.0000 0.0000 0.0000 81.7655 -14.9744 52.2274 -18.5938 28.9108 -4.8329 0.0000 0.0000 37.1189 48.6623 -21.0410 -22.2023 7.1250 -0.0000 -0.0000 58.3112 -40.6131 11.2794
8.6929 15.0837 42.0076 -181.0550 -1.3997 176.5980 0.0000 0.0000 0.0000 -29.4549 -25.9004 5.3075 2.5194 9.8732 28.5670 1.6848 12.0301 -31.4026 2.8193 -10.3967 -30.2711 0.0000 0.0000 0.0000 25.7733 20.1302 5.2473 -2.3767 -9.6103 27.7236 -0.3414 -22.3656 -33.6623 -0.0139 0.7605 -2.0901 -1.0441 0.7309 8.3492 -0.3644 0.7755 -3.9201 0.0807 0.4049 -8.8593 -8.0452 -2.3890 -10.3517 7.9634 -3.0226 9.7992 3.5748 -1.3239 4.8757 -0.0000 0.0000 0.0000 -83.4828 15.6352 43.3766 16.3602 -26.0066 -3.8025 -0.0000 -0.0000 16.2501 -2.2314 -30.1356 1.1207 -7.1250 0.0000 -0.0000 -19.0197 1.2081 19.7426 -0.0000 0.0000 0.0000 80.1940 -14.0028 53.3679 -18.7398 29.0941 -4.9037 0.0000 0.0000 36.4047 48.8663 -20.8597 -22.1807 7.1250 -0.0000 -0.0000 58.1286 -40.3828 11.8465
8.7024 15.1235 42.0144 -180.4310 -0.4300 178.1330 0.0000 0.0000 0.0000 -27.8669 -26.2220 3.3484 2.5478 9.9243 28.7318 1.7288 12.0837 -31.7147 2.5391 -9.9087 -28.6817 0.0000 0.0000 0.0000 25.8441 21.1305 3.7494 -2.2852 -9.4365 27.1705 -0.3643 -22.1353 -33.5095 -0.0142 0.7684 -2.1119 -0.6199 1.0532 7.0354 -0.2003 1.2474 -4.4007 -0.0376 0.6023 -8.6086 -7.9211 -2.3992 -10.4283 7.9157 -3.0428 9.7858 3.5372 -1.3302 4.8836 0.0000 -0.0000 0.0000 -83.3435 15.6181 43.7302 16.4948 -26.1870 -3.8617 -0.0000 -0.0000 15.7362 -0.5849 -35.1531 0.3367 -7.1250 0.0000 -0.0000 -18.1284 -3.6667 20.2655 0.0000 -0.0000 0.0000 80.1302 -14.0616 53.6723 -18.8936 29.2862 -4.9787 0.0000 0.0000 36.1115 49.2250 -20.8738 -22.4482 7.1250 -0.0000 -0.0000 58.1601 -40.2855 12.1522
8.7119 15.1594 42.0480 -178.4440 -0.6849 179.7460 0.0000 0.0000 0.0000 -24.3760 -26.6243 0.6401 2.6272 10.0656 29.1895 1.7549 11.0906 -31.1266 2.4046 -9.6623 -27.8898 0.0000 0.0000 0.0000 27.5153 22.0880 2.3075 -2.1564 -9.1846 26.3745 -0.2930 -22.5824 -33.6489 -0.0068 0.5323 -1.4628 1.2224 0.9547 6.1022 0.2942 1.2916 -5.0156 -0.5405 0.5071 -8.6973 -7.7690 -2.4142 -10.3569 7.8211 -3.0783 9.7461 3.4795 -1.3495 4.8586 0.0000 0.0000 0.0000 -83.3029 15.5280 43.7243 16.5018 -26.1964 -3.8648 -0.0000 -0.0000 15.7180 -2.6373 -35.3899 1.5281 -7.1250 0.0000 -0.0000 -19.1975 -3.7455 21.6285 0.0000 0.0000 0.0000 80.1372 -14.1304 53.8845 -19.0118 29.4333 -5.0366 0.0000 0.0000 35.7146 49.3316 -21.1274 -22.7590 7.1250 -0.0000 -0.0000 58.4411 -40.4917 11.7121
8.7105 15.1590 42.0486 -178.3460 -0.6884 179.7320 0.0000 0.0000 0.0000 -24.2859 -26.7061 0.4814 2.7006 10.1939 29.6069 1.8180 10.8305 -31.3275 2.4003 -9.6544 -27.8646 0.0000 0.0000 0.0000 27.6015 21.9294 2.6111 -2.0504 -8.9703 25.7024 -0.2683 -22.3190 -33.1633 -0.0027 0.3339 -0.9173 1.3561 0.9838 6.1502 0.2486 1.3423 -5.0205 -0.6714 0.5219 -8.7261 -7.5547 -2.4406 -10.3377 7.7371 -3.1353 9.6855 3.4130 -1.3753 4.8368 0.0000 -0.0000 0.0000 -83.2580 15.5906 43.7169 16.5501 -26.2609 -3.8862 -0.0000 -0.0000 16.7000 -1.6707 -35.3203 0.9661 -7.1250 0.0000 -0.0000 -18.6964 -3.7449 20.9973 0.0000 -0.0000 0.0000 80.3130 -14.1437 53.8342 -19.0147 29.4369 -5.0381 0.0000 0.0000 35.4963 49.2473 -21.4385 -22.9840 7.1250 -0.0000 -0.0000 58.7802 -40.8080 10.9679
8.7074 15.1604 42.0436 -178.3210 -0.7029 179.7650 0.0000 0.0000 0.0000 -24.3030 -26.8878 0.3465 2.7674 10.3086 29.9819 1.8370 10.9547 -31.5339 2.5417 -9.9134 -28.6967 0.0000 0.0000 0.0000 27.6012 21.8636 2.8349 -1.9692 -8.8016 25.1768 -0.2268 -22.2170 -32.7769 -0.0001 0.0775 -0.2129 1.4504 1.0146 6.0690 0.1889 1.3865 -5.0181 -0.7918 0.5359 -8.6710 -7.3645 -2.4723 -10.2849 7.6027 -3.1887 9.5979 3.3350 -1.4033 4.8002 -0.0000 0.0000 0.0000 -83.1762 15.6314 43.5649 16.6483 -26.3918 -3.9297 -0.0000 -0.0000 17.0733 -2.1113 -35.5121 1.2268 -7.1250 0.0000 -0.0000 -18.9264 -3.8963 21.3339 -0.0000 0.0000 0.0000 80.5205 -14.1259 53.6826 -18.9564 29.3644 -5.0094 0.0000 0.0000 35.3087 49.0321 -21.9042 -23.2502 7.1250 -0.0000 -0.0000 59.2838 -41.2982 9.7770
